<svg xmlns="http://www.w3.org/2000/svg" viewBox="0 0 32 32">
  <rect width="32" height="32" rx="6" fill="#16251d"/>
  <path d="M7 10 3 5l7 2 3 5-6-2Zm18 0 4-5-7 2-3 5 6-2Z" fill="#d6c36a"/>
  <rect x="7" y="9" width="18" height="17" rx="6" fill="#5bb579"/>
  <path d="M9 9c4-5 10-5 14 0-3 2-11 2-14 0Z" fill="#2f7d56"/>
  <circle cx="12" cy="16" r="2" fill="#fff1a8"/>
  <circle cx="20" cy="16" r="2" fill="#fff1a8"/>
  <circle cx="12" cy="16" r="1" fill="#17221a"/>
  <circle cx="20" cy="16" r="1" fill="#17221a"/>
  <path d="M13 22h6" stroke="#16351f" stroke-width="2" stroke-linecap="round"/>
  <path d="M6 25c5 3 15 3 20-1" fill="none" stroke="#d6c36a" stroke-width="2" stroke-linecap="round"/>
  <path d="M24 6c1 5 1 9-1 12" fill="none" stroke="#b8ee9a" stroke-width="2" stroke-linecap="round"/>
</svg>
