<svg xmlns="http://www.w3.org/2000/svg" viewBox="0 0 32 32">
  <path d="M17 7c2-4 6-5 10-4-1 5-5 8-10 8z" fill="#58b86a"/>
  <path d="M16 8c-6-4-13 1-13 9 0 7 5 12 13 12s13-5 13-12c0-8-7-13-13-9z" fill="#ff8f9c"/>
  <path d="M16 8c-3 5-3 13 0 21 8 0 13-5 13-12 0-8-7-13-13-9z" fill="#ff6f84"/>
  <path d="M7 15c1-4 4-6 8-5" fill="none" stroke="#ffd0d8" stroke-width="2" stroke-linecap="round"/>
  <path d="M16 8c0 5 0 12 0 20" fill="none" stroke="#cc4661" stroke-width="1.4" stroke-linecap="round" opacity=".65"/>
  <path d="M16 29c8 0 13-5 13-12 0-8-7-13-13-9-6-4-13 1-13 9 0 7 5 12 13 12z" fill="none" stroke="#5d2734" stroke-width="2"/>
</svg>
