<svg xmlns="http://www.w3.org/2000/svg" viewBox="0 0 32 32">
  <rect width="32" height="32" rx="6" fill="#34141a"/>
  <path d="M8 11c2-6 8-7 11-3 3-2 7 0 7 5-4-2-8-1-11 2-2-3-4-4-7-4Z" fill="#ff7a35"/>
  <circle cx="15" cy="15" r="8" fill="#f0c08a"/>
  <path d="M9 13c3-4 8-5 13-2-2-5-9-8-13 2Z" fill="#d92f24"/>
  <circle cx="12" cy="16" r="1.6" fill="#211014"/>
  <circle cx="19" cy="16" r="1.6" fill="#211014"/>
  <path d="M13 21c2 1 4 1 6 0" fill="none" stroke="#6b1a1a" stroke-width="1.8" stroke-linecap="round"/>
  <path d="M5 24c5-2 7-4 10-8" fill="none" stroke="#ffd166" stroke-width="2.2" stroke-linecap="round"/>
  <path d="M20 25c2-4 4-6 8-8" fill="none" stroke="#ff4d2d" stroke-width="2.2" stroke-linecap="round"/>
  <path d="M25 16l3-4 1 5Z" fill="#ffd166"/>
</svg>
