<svg xmlns="http://www.w3.org/2000/svg" width="32" height="32" viewBox="0 0 32 32" shape-rendering="crispEdges">
  <rect width="32" height="32" fill="none"/>
  <rect x="9" y="5" width="14" height="4" fill="#f4d35e"/>
  <rect x="7" y="9" width="18" height="12" fill="#d99a36"/>
  <rect x="9" y="11" width="14" height="8" fill="#f7c56b"/>
  <rect x="5" y="13" width="4" height="8" fill="#b96f2a"/>
  <rect x="23" y="13" width="4" height="8" fill="#b96f2a"/>
  <rect x="11" y="13" width="3" height="3" fill="#2a1e22"/>
  <rect x="18" y="13" width="3" height="3" fill="#2a1e22"/>
  <rect x="14" y="17" width="4" height="2" fill="#7a2d24"/>
  <rect x="10" y="3" width="12" height="2" fill="#fff0a8"/>
  <rect x="12" y="1" width="8" height="2" fill="#f8e98c"/>
  <rect x="8" y="22" width="16" height="3" fill="#5b3150"/>
  <rect x="10" y="25" width="5" height="5" fill="#7f4b6f"/>
  <rect x="17" y="25" width="5" height="5" fill="#7f4b6f"/>
  <rect x="2" y="10" width="3" height="12" fill="#ffd85e"/>
  <rect x="27" y="10" width="3" height="12" fill="#ffd85e"/>
  <rect x="1" y="14" width="2" height="4" fill="#fff3a6"/>
  <rect x="29" y="14" width="2" height="4" fill="#fff3a6"/>
</svg>
